<svg width="88" height="88" viewBox="0 0 88 88" fill="none" xmlns="http://www.w3.org/2000/svg">
<path d="M14.2446 30.7778H59.3335C60.9904 30.7778 62.3335 32.121 62.3335 33.7778V59.3112C62.3335 60.968 60.9904 62.3112 59.3335 62.3112H25.1984C24.4027 62.3112 23.6397 62.6272 23.0771 63.1898L16.3659 69.901C14.4761 71.7909 11.2446 70.4523 11.2446 67.7796V33.7778C11.2446 32.121 12.5878 30.7778 14.2446 30.7778Z" stroke="#14F46F" stroke-width="3" stroke-linecap="round"/>
<path d="M67.4667 52.5333H74C75.6569 52.5333 77 51.1902 77 49.5333V24C77 22.3431 75.6569 21 74 21H28.9111C27.2543 21 25.9111 22.3431 25.9111 24V26.1333" stroke="#14F46F" stroke-width="3" stroke-linecap="round"/>
<path d="M20.2891 41.5332H53.0446" stroke="#14F46F" stroke-width="3"/>
<path d="M20.0444 50.5776H52.8" stroke="#14F46F" stroke-width="3"/>
</svg>
