<svg width="88" height="88" viewBox="0 0 88 88" fill="none" xmlns="http://www.w3.org/2000/svg">
<path d="M43.9999 17C38.9235 17 25.7542 19.9816 20.2174 23.1929C19.4166 23.6573 18.9987 24.5414 19.006 25.4672C19.0665 33.2133 19.5793 46.9315 20.4999 50C23.3722 59.5744 34.9531 66.8571 42.955 70.0926C43.6275 70.3646 44.3723 70.3646 45.0447 70.0926C53.0467 66.8571 64.6276 59.5744 67.4999 50C68.3282 47.239 68.8263 30.6386 68.962 25.5089C68.9871 24.5595 68.5684 23.6458 67.7454 23.1715C62.1873 19.9684 49.065 17 43.9999 17Z" stroke="#14F46F" stroke-width="3" stroke-linecap="round"/>
<path d="M32 41.4651L42.5 49L58 31" stroke="#14F46F" stroke-width="2.44444" stroke-linecap="round"/>
</svg>
